HIERARCHY
ROOT Hips
{
	OFFSET 0 0 0
	CHANNELS 6 Xposition Yposition Zposition Yrotation Xrotation Zrotation
	JOINT Spine
	{
		OFFSET -0 7.69132 -2.45161
		CHANNELS 3 Yrotation Xrotation Zrotation
		JOINT Spine1
		{
			OFFSET -0 7.43975 0
			CHANNELS 3 Yrotation Xrotation Zrotation
			JOINT Spine2
			{
				OFFSET -0 7.43975 0
				CHANNELS 3 Yrotation Xrotation Zrotation
				JOINT Spine3
				{
					OFFSET -0 7.43975 0
					CHANNELS 3 Yrotation Xrotation Zrotation
					JOINT Neck
					{
						OFFSET -0 13.9329 3.45161
						CHANNELS 3 Yrotation Xrotation Zrotation
						JOINT Head
						{
							OFFSET -0 9.61415 0
							CHANNELS 3 Yrotation Xrotation Zrotation
							End Site
							{
								OFFSET 0 15 0
							}
						}
					}
					JOINT LeftShoulder
					{
						OFFSET 1.60236 2.19729 3.20472
						CHANNELS 3 Yrotation Xrotation Zrotation
						JOINT LeftArm
						{
							OFFSET 17.7845 0 0
							CHANNELS 3 Yrotation Xrotation Zrotation
							JOINT LeftForeArm
							{
								OFFSET 22.4513 0 0
								CHANNELS 3 Yrotation Xrotation Zrotation
								JOINT LeftHand
								{
									OFFSET 20.5515 0 0
									CHANNELS 3 Yrotation Xrotation Zrotation
									JOINT LeftHandThumb1
									{
										OFFSET 4.91385 0 2.72801
										CHANNELS 3 Yrotation Xrotation Zrotation
										JOINT LeftHandThumb2
										{
											OFFSET 3 0 1
											CHANNELS 3 Yrotation Xrotation Zrotation
											JOINT LeftHandThumb3
											{
												OFFSET 2.1 0 0
												CHANNELS 3 Yrotation Xrotation Zrotation
												JOINT LeftHandThumb4
												{
													OFFSET 1.305 0 0
													CHANNELS 3 Yrotation Xrotation Zrotation
													End Site
													{
														OFFSET -0 0 0
													}
												}
											}
										}
									}
									JOINT LeftHandIndex1
									{
										OFFSET 9.07627 0 3.52715
										CHANNELS 3 Yrotation Xrotation Zrotation
										JOINT LeftHandIndex2
										{
											OFFSET 3.5 0 0
											CHANNELS 3 Yrotation Xrotation Zrotation
											JOINT LeftHandIndex3
											{
												OFFSET 2.45 0 0
												CHANNELS 3 Yrotation Xrotation Zrotation
												JOINT LeftHandIndex4
												{
													OFFSET 1.5225 0 0
													CHANNELS 3 Yrotation Xrotation Zrotation
													End Site
													{
														OFFSET -0 0 0
													}
												}
											}
										}
									}
									JOINT LeftHandMiddle1
									{
										OFFSET 9.21121 0 1.12806
										CHANNELS 3 Yrotation Xrotation Zrotation
										JOINT LeftHandMiddle2
										{
											OFFSET 4.6 0 0
											CHANNELS 3 Yrotation Xrotation Zrotation
											JOINT LeftHandMiddle3
											{
												OFFSET 3.22 0 0
												CHANNELS 3 Yrotation Xrotation Zrotation
												JOINT LeftHandMiddle4
												{
													OFFSET 2.001 0 0
													CHANNELS 3 Yrotation Xrotation Zrotation
													End Site
													{
														OFFSET -0 0 0
													}
												}
											}
										}
									}
									JOINT LeftHandRing1
									{
										OFFSET 9.04616 0 -1.27103
										CHANNELS 3 Yrotation Xrotation Zrotation
										JOINT LeftHandRing2
										{
											OFFSET 3.75 0 0
											CHANNELS 3 Yrotation Xrotation Zrotation
											JOINT LeftHandRing3
											{
												OFFSET 2.625 0 0
												CHANNELS 3 Yrotation Xrotation Zrotation
												JOINT LeftHandRing4
												{
													OFFSET 1.63125 0 0
													CHANNELS 3 Yrotation Xrotation Zrotation
													End Site
													{
														OFFSET -0 0 0
													}
												}
											}
										}
									}
									JOINT LeftHandPinky1
									{
										OFFSET 8.58111 0 -3.67011
										CHANNELS 3 Yrotation Xrotation Zrotation
										JOINT LeftHandPinky2
										{
											OFFSET 2.875 0 0
											CHANNELS 3 Yrotation Xrotation Zrotation
											JOINT LeftHandPinky3
											{
												OFFSET 2.0125 0 0
												CHANNELS 3 Yrotation Xrotation Zrotation
												JOINT LeftHandPinky4
												{
													OFFSET 1.25062 0 0
													CHANNELS 3 Yrotation Xrotation Zrotation
													End Site
													{
														OFFSET -0 0 0
													}
												}
											}
										}
									}
								}
							}
						}
					}
					JOINT RightShoulder
					{
						OFFSET -1.60236 2.19729 3.20472
						CHANNELS 3 Yrotation Xrotation Zrotation
						JOINT RightArm
						{
							OFFSET -17.7845 0 0
							CHANNELS 3 Yrotation Xrotation Zrotation
							JOINT RightForeArm
							{
								OFFSET -22.4513 0 0
								CHANNELS 3 Yrotation Xrotation Zrotation
								JOINT RightHand
								{
									OFFSET -20.5515 0 0
									CHANNELS 3 Yrotation Xrotation Zrotation
									JOINT RightHandThumb1
									{
										OFFSET -4.4694 0 0.364316
										CHANNELS 3 Yrotation Xrotation Zrotation
										JOINT RightHandThumb2
										{
											OFFSET -3 0 1
											CHANNELS 3 Yrotation Xrotation Zrotation
											JOINT RightHandThumb3
											{
												OFFSET -2.1 0 0
												CHANNELS 3 Yrotation Xrotation Zrotation
												JOINT RightHandThumb4
												{
													OFFSET -1.305 0 0
													CHANNELS 3 Yrotation Xrotation Zrotation
													End Site
													{
														OFFSET -0 0 0
													}
												}
											}
										}
									}
									JOINT RightHandIndex1
									{
										OFFSET -7.92682 0 1.55071
										CHANNELS 3 Yrotation Xrotation Zrotation
										JOINT RightHandIndex2
										{
											OFFSET -3.5 0 0
											CHANNELS 3 Yrotation Xrotation Zrotation
											JOINT RightHandIndex3
											{
												OFFSET -2.45 0 0
												CHANNELS 3 Yrotation Xrotation Zrotation
												JOINT RightHandIndex4
												{
													OFFSET -1.5225 0 0
													CHANNELS 3 Yrotation Xrotation Zrotation
													End Site
													{
														OFFSET -0 0 0
													}
												}
											}
										}
									}
									JOINT RightHandMiddle1
									{
										OFFSET -8.23226 0 0.386205
										CHANNELS 3 Yrotation Xrotation Zrotation
										JOINT RightHandMiddle2
										{
											OFFSET -4.6 0 0
											CHANNELS 3 Yrotation Xrotation Zrotation
											JOINT RightHandMiddle3
											{
												OFFSET -3.22 0 0
												CHANNELS 3 Yrotation Xrotation Zrotation
												JOINT RightHandMiddle4
												{
													OFFSET -2.001 0 0
													CHANNELS 3 Yrotation Xrotation Zrotation
													End Site
													{
														OFFSET -0 0 0
													}
												}
											}
										}
									}
									JOINT RightHandRing1
									{
										OFFSET -8.23771 0 -0.778302
										CHANNELS 3 Yrotation Xrotation Zrotation
										JOINT RightHandRing2
										{
											OFFSET -3.75 0 0
											CHANNELS 3 Yrotation Xrotation Zrotation
											JOINT RightHandRing3
											{
												OFFSET -2.625 0 0
												CHANNELS 3 Yrotation Xrotation Zrotation
												JOINT RightHandRing4
												{
													OFFSET -1.63125 0 0
													CHANNELS 3 Yrotation Xrotation Zrotation
													End Site
													{
														OFFSET -0 0 0
													}
												}
											}
										}
									}
									JOINT RightHandPinky1
									{
										OFFSET -7.94315 0 -1.94281
										CHANNELS 3 Yrotation Xrotation Zrotation
										JOINT RightHandPinky2
										{
											OFFSET -2.875 0 0
											CHANNELS 3 Yrotation Xrotation Zrotation
											JOINT RightHandPinky3
											{
												OFFSET -2.0125 0 0
												CHANNELS 3 Yrotation Xrotation Zrotation
												JOINT RightHandPinky4
												{
													OFFSET -1.25062 0 0
													CHANNELS 3 Yrotation Xrotation Zrotation
													End Site
													{
														OFFSET -0 0 0
													}
												}
											}
										}
									}
								}
							}
						}
					}
				}
			}
		}
	}
	JOINT LeftUpLeg
	{
		OFFSET 9.61415 -3.20472 3
		CHANNELS 3 Yrotation Xrotation Zrotation
		JOINT LeftLeg
		{
			OFFSET -0 -42.2921 2.2433
			CHANNELS 3 Yrotation Xrotation Zrotation
			JOINT LeftFoot
			{
				OFFSET -0 -34.6503 -2.2433
				CHANNELS 3 Yrotation Xrotation Zrotation
				JOINT LeftToeBase
				{
					OFFSET -0 -8.30332 8.5187
					CHANNELS 3 Yrotation Xrotation Zrotation
					End Site
					{
						OFFSET 0 0 5
					}
				}
			}
		}
	}
	JOINT RightUpLeg
	{
		OFFSET -9.61415 -3.20472 3
		CHANNELS 3 Yrotation Xrotation Zrotation
		JOINT RightLeg
		{
			OFFSET -0 -42.2921 2.2433
			CHANNELS 3 Yrotation Xrotation Zrotation
			JOINT RightFoot
			{
				OFFSET -0 -34.6503 -2.2433
				CHANNELS 3 Yrotation Xrotation Zrotation
				JOINT RightToeBase
				{
					OFFSET -0 -8.30332 8.5187
					CHANNELS 3 Yrotation Xrotation Zrotation
					End Site
					{
						OFFSET 0 0 5
					}
				}
			}
		}
	}
}
MOTION
Frames: 4
Frame Time: 0.033333
-0.17282 0.43157 0.55069 -42.43528 3.27408 -62.72744 40.38019 13.14432 120.75796 37.27244 17.57104 122.06097 36.87190 15.80262 123.45567 35.92398 10.24864 127.65472 -74.16262 6.58432 45.16003 -67.34246 51.27124 -73.15113 -36.35233 -13.08848 125.53768 -6.35864 -36.16077 123.81741 70.62892 -36.42299 50.65637 -84.36912 -45.47608 174.84212 48.84553 -20.75000 29.52064 43.23042 7.78709 15.23387 -128.11688 1.34810 40.86292 23.37856 -15.03230 -78.32677 -4.63964 -16.28457 -83.46356 -0.48100 -1.39864 -92.27522 -20.64215 -18.15065 -88.30478 22.58391 17.68999 -102.53092 45.51956 -8.08778 -111.01007 55.67998 -23.19753 -66.75132 67.82695 -18.37996 -52.68304 39.23152 24.09484 -153.43495 39.23152 24.09484 -153.43495 35.69813 8.33573 -140.94686 36.74031 -15.16784 -123.94854 76.79435 12.66714 26.50581 75.31005 13.70464 27.70948 65.98758 -2.44418 70.46086 72.77003 3.28060 41.57687 -55.11805 -31.69616 155.92089 -37.78243 39.75096 74.56336 68.13193 8.93250 69.90972 -39.56196 -24.97622 -64.23067 -79.22607 -36.32544 60.51808 67.30950 9.54831 -102.06475 76.48350 8.59590 -76.06087 43.73929 -33.37669 -107.23551 -16.37900 10.95094 -51.84224 -11.91477 15.00337 -50.14703 -11.92534 6.92352 -49.58287 13.49010 -18.84025 -60.45532 -13.33020 11.39800 137.68098 -35.74756 8.79210 141.27877 -21.64551 -2.69796 127.06730 -40.45646 -4.37483 95.84848 7.47392 9.22192 -75.08183 5.61084 19.72735 -82.25559 -10.16936 9.29550 -76.69727 23.28427 4.08286 -82.01554 43.95133 -24.45745 -32.83099 43.82739 -24.45435 -32.62235 38.07824 12.52494 -58.58415 39.70483 14.85082 -63.73899 45.42787 8.41865 -15.13662 116.09763 -65.77327 43.11821 9.76190 -38.84703 -32.38523 64.00091 50.03227 77.47119 42.36210 -17.17498 -108.28475 -8.03254 -2.91714 58.23143 38.18977 28.03770 28.85893 -131.76680 -18.82236 15.28484 10.60716 -21.01206 123.13300
-0.17868 0.43157 0.55460 -42.41267 3.24260 -62.66553 40.59173 13.02602 120.89763 37.29095 17.64760 121.99981 36.87190 15.80262 123.45567 35.92398 10.24864 127.65472 -74.26542 6.53242 45.11527 -67.41317 51.29486 -73.06052 -36.36882 -13.18447 125.46511 -6.53231 -36.13236 123.57587 71.89531 -36.98808 52.89758 -84.27086 -45.46646 174.97995 49.13214 -21.27340 29.43335 43.30541 7.59482 14.91250 -128.12516 -1.37109 43.92418 23.54636 -14.43224 -78.78153 -4.33795 -15.75226 -83.06532 -0.56593 -1.44857 -92.16472 -20.85808 -18.14897 -88.54440 22.44494 17.61219 -102.52972 45.51038 -7.71457 -111.68607 55.80100 -23.12223 -66.64800 67.90759 -18.19475 -52.43014 39.23152 24.09484 -153.43495 39.23152 24.09484 -153.43495 35.73080 8.64019 -141.16818 36.62937 -14.60766 -124.38035 76.83243 12.45122 27.02540 75.43260 13.49098 28.30408 66.26560 -2.34097 70.29059 72.69671 3.37633 41.79051 -55.11302 -31.65026 155.74900 -37.63811 39.88770 74.50998 68.10488 9.13406 70.01289 -39.52108 -24.86964 -64.13364 -79.31442 -36.23304 60.41436 67.49817 9.45098 -102.20574 76.74851 8.46911 -75.87882 43.79289 -33.46149 -107.13820 -16.31475 10.84056 -52.03767 -11.82939 15.07348 -50.15590 -11.92731 6.99988 -49.56662 13.05296 -18.72794 -60.44478 -13.33365 11.46989 137.69836 -35.74756 8.79210 141.27877 -22.02271 -2.56078 127.37797 -40.46341 -4.43193 96.01352 8.31315 8.70470 -75.04101 6.68575 19.08015 -82.49634 -9.50973 8.70852 -77.01138 24.33130 4.15203 -82.01839 43.95133 -24.45745 -32.83099 43.96354 -24.48527 -32.80152 38.14842 12.60953 -58.79855 39.70174 14.58057 -63.66813 45.39766 8.34084 -15.35484 117.27286 -65.72088 44.36648 10.40424 -38.62079 -31.55100 63.86769 49.97760 77.64508 42.08368 -17.68143 -108.58938 -8.04679 -2.98459 58.38466 37.87838 28.39872 29.34549 -131.77608 -18.78505 15.35510 10.28548 -21.54377 123.29305
-0.18063 0.43352 0.54288 -42.40582 3.10747 -62.78915 40.85201 12.72764 121.31268 37.25068 17.48041 122.13326 36.87190 15.80262 123.45567 35.93052 10.29846 127.61803 -74.88592 6.93589 44.51432 -67.48394 51.31840 -72.96984 -36.36882 -13.18447 125.46511 -6.86275 -36.01457 123.24931 71.22994 -36.99512 51.91074 -84.42554 -45.52550 174.38598 49.09074 -21.14804 29.06781 43.38150 7.42132 14.57135 -126.74680 6.09733 33.14491 23.61023 -15.38188 -78.62291 -4.12158 -16.15897 -83.47362 -0.40091 -1.62780 -92.30200 -20.29725 -17.93013 -87.99796 22.73778 17.67800 -102.21613 45.80018 -7.87284 -110.97116 55.97142 -23.10241 -66.24501 68.15992 -18.22109 -51.72555 39.23152 24.09484 -153.43495 39.23152 24.09484 -153.43495 35.79953 9.24648 -141.61026 36.53981 -14.13682 -124.74112 76.70284 12.37945 27.23237 75.36096 13.49734 28.24818 65.94518 -2.29534 70.37368 72.57892 3.67706 40.74195 -55.07507 -31.64756 156.00273 -37.87396 39.96631 74.46638 68.64122 9.44292 69.09531 -39.48007 -24.76205 -64.03593 -78.65190 -36.09215 60.47128 67.67519 9.35863 -101.77389 77.03830 8.62211 -75.60288 43.73929 -33.37669 -107.23551 -16.22810 10.83968 -52.05556 -11.83354 15.14685 -50.13998 -11.86366 6.93685 -49.72344 12.28088 -18.35142 -60.50740 -13.33020 11.39800 137.68098 -35.79363 9.19609 141.57345 -21.59869 -2.12576 127.43431 -40.12048 -4.10933 96.24411 9.29383 7.91644 -74.85921 7.45956 18.45421 -82.45798 -8.86184 9.03754 -76.84663 24.20359 4.12663 -81.85692 44.07484 -24.46019 -33.04212 43.95133 -24.45745 -32.83099 38.23429 12.78137 -59.08426 39.75853 14.58542 -63.83374 45.37299 8.25674 -15.45805 118.44213 -65.98706 45.54226 9.87411 -38.79410 -32.16020 63.55547 49.84779 78.05317 42.27312 -17.13397 -107.95616 -7.99827 -2.76958 58.41741 37.16956 28.39380 31.09566 -131.82053 -18.63054 15.51547 9.45496 -22.37175 123.23132
-0.18454 0.43743 0.55069 -42.44708 3.09491 -62.98245 41.00965 12.42959 121.64326 37.20743 17.29866 122.27798 36.81649 15.53903 123.66081 35.92398 10.24864 127.65472 -75.07506 7.59775 44.58244 -67.48394 51.31840 -72.96984 -36.38543 -13.28033 125.39256 -6.50590 -36.03303 123.17498 70.86920 -36.87004 50.88615 -84.05847 -45.54086 174.47048 49.34344 -21.65723 29.38559 43.43219 7.36383 14.32123 -126.63131 6.55361 32.40326 23.42000 -14.83312 -79.21337 -4.23087 -15.89444 -83.48539 -0.40068 -1.59346 -92.98784 -20.33953 -18.08539 -88.55980 22.80038 17.66228 -102.15680 46.07876 -7.81854 -110.87040 56.27783 -23.00128 -65.45795 68.28621 -18.09337 -51.41840 39.23152 24.09484 -153.43495 39.23152 24.09484 -153.43495 35.81142 9.34717 -141.68386 36.47011 -13.75756 -125.03033 76.77324 12.27843 27.78999 75.44681 13.44126 28.73662 66.53332 -2.05332 70.53321 72.67134 3.40905 41.56623 -55.19857 -31.75665 155.63168 -38.40908 40.02264 75.10590 68.62742 9.36769 68.98571 -39.43832 -24.65183 -63.93606 -77.94128 -36.11640 61.19079 67.61884 9.14796 -101.87753 77.00006 8.38923 -75.79659 43.68598 -33.29192 -107.33251 -16.16560 10.76865 -52.23958 -11.85694 15.17850 -50.27127 -11.94692 6.90145 -49.72038 12.17344 -18.40563 -60.44062 -13.33020 11.39800 137.68098 -35.73636 8.69085 141.20505 -21.74835 -1.96993 127.48999 -39.81843 -4.34478 96.15053 9.76922 7.94692 -74.93169 8.01355 18.00833 -82.68538 -8.21354 9.17584 -76.93100 24.90660 3.68297 -81.92121 44.07484 -24.46019 -33.04212 43.95133 -24.45745 -32.83099 38.25737 12.90976 -59.18805 39.77927 14.68087 -63.91585 45.36630 8.28430 -15.64836 118.84867 -66.01982 46.17031 9.45458 -37.82099 -30.72911 63.22355 49.70715 78.48788 42.10117 -17.32826 -107.86884 -7.55610 -3.14627 58.71795 35.54253 28.00789 32.09752 -131.87009 -18.45815 15.71178 10.11697 -20.44829 123.17152
